<svg xmlns="http://www.w3.org/2000/svg" width="800" height="600" viewBox="0 0 800 600">
  <defs>
    <linearGradient id="sky" x1="0" y1="0" x2="0" y2="1">
      <stop offset="0%" stop-color="#0d1b2a"/>
      <stop offset="100%" stop-color="#2c6e9b"/>
    </linearGradient>
    <linearGradient id="grid" x1="0" y1="0" x2="1" y2="0">
      <stop offset="0%" stop-color="#ff7afa"/>
      <stop offset="50%" stop-color="#37ffe5"/>
      <stop offset="100%" stop-color="#ff7afa"/>
    </linearGradient>
  </defs>
  <rect width="800" height="600" fill="url(#sky)"/>
  <g stroke="url(#grid)" stroke-width="3" fill="none" opacity="0.9">
    <line x1="0" y1="380" x2="800" y2="380"/>
    <line x1="0" y1="430" x2="800" y2="430"/>
    <line x1="0" y1="480" x2="800" y2="480"/>
    <line x1="0" y1="530" x2="800" y2="530"/>
    <line x1="0" y1="580" x2="800" y2="580"/>
    <line x1="400" y1="380" x2="-200" y2="600"/>
    <line x1="400" y1="380" x2="0" y2="600"/>
    <line x1="400" y1="380" x2="200" y2="600"/>
    <line x1="400" y1="380" x2="400" y2="600"/>
    <line x1="400" y1="380" x2="600" y2="600"/>
    <line x1="400" y1="380" x2="800" y2="600"/>
    <line x1="400" y1="380" x2="1000" y2="600"/>
  </g>
  <circle cx="400" cy="220" r="120" fill="#ffd24c" opacity="0.92"/>
  <g fill="#0d1b2a">
    <rect x="280" y="200" width="240" height="6"/>
    <rect x="280" y="220" width="240" height="4"/>
    <rect x="280" y="236" width="240" height="3"/>
  </g>
</svg>
